<svg viewBox="0 0 400 300" xmlns="http://www.w3.org/2000/svg"><path d="m285 217.82h-32.61a1 1 0 0 1 0-2h31.61v-15.18a1 1 0 0 1 2 0v16.18a1 1 0 0 1 -1 1z" fill="#093f68"/><path d="m245.7 217.82h-87.47a1 1 0 1 1 0-2h87.47a1 1 0 0 1 0 2z" fill="#093f68"/><path d="m152.85 217.82h-45.29a1 1 0 0 1 -1-1v-14.72a1 1 0 1 1 2 0v13.72h44.29a1 1 0 0 1 0 2z" fill="#093f68"/><rect fill="#68e1fd" height="122.08" rx="10.06" width="68.06" x="250.94" y="78.74"/><path d="m308.94 201.82h-47.94a11.08 11.08 0 0 1 -11.06-11.07v-101.95a11.07 11.07 0 0 1 11.06-11.06h47.94a11.07 11.07 0 0 1 11.06 11.06v102a11.08 11.08 0 0 1 -11.06 11.02zm-47.94-122.08a9.06 9.06 0 0 0 -9.06 9.06v102a9.07 9.07 0 0 0 9.06 9.07h47.94a9.08 9.08 0 0 0 9.06-9.07v-102a9.07 9.07 0 0 0 -9.06-9.06z" fill="#093f68"/><path d="m250.94 90.64h68.06v91.69h-68.06z" fill="#fff"/><g fill="#093f68"><path d="m319 183.33h-68.06a1 1 0 0 1 -1-1v-91.69a1 1 0 0 1 1-1h68.06a1 1 0 0 1 1 1v91.69a1 1 0 0 1 -1 1zm-67.06-2h66.06v-89.69h-66.06z"/><path d="m285 196.86a5.58 5.58 0 1 1 5.58-5.57 5.58 5.58 0 0 1 -5.58 5.57zm0-9.15a3.58 3.58 0 1 0 3.58 3.58 3.58 3.58 0 0 0 -3.58-3.58z"/><path d="m290.6 85.48h-14.36a1 1 0 0 1 0-2h14.36a1 1 0 0 1 0 2z"/><path d="m299.66 85.48h-4.06a1 1 0 0 1 0-2h4.06a1 1 0 0 1 0 2z"/></g><path d="m258.83 104.15h53.23v25.98h-53.23z" fill="#ffbc0e"/><path d="m312.06 131.13h-53.23a1 1 0 0 1 -1-1v-26a1 1 0 0 1 1-1h53.23a1 1 0 0 1 1 1v26a1 1 0 0 1 -1 1zm-52.23-2h51.23v-24h-51.23z" fill="#093f68"/><path d="m258.83 136.64h53.23v25.98h-53.23z" fill="#70cc40"/><path d="m312.06 163.61h-53.23a1 1 0 0 1 -1-1v-26a1 1 0 0 1 1-1h53.23a1 1 0 0 1 1 1v26a1 1 0 0 1 -1 1zm-52.23-2h51.23v-24h-51.23z" fill="#093f68"/><path d="m258.83 169.12h53.23v12.99h-53.23z" fill="#f56132"/><path d="m312.06 183.11h-53.23a1 1 0 0 1 -1-1v-13a1 1 0 0 1 1-1h53.23a1 1 0 0 1 1 1v13a1 1 0 0 1 -1 1zm-52.23-2h51.23v-11h-51.23z" fill="#093f68"/><path d="m270.73 98.49h-13.53a1 1 0 0 1 0-2h13.53a1 1 0 0 1 0 2z" fill="#093f68"/><path d="m310.76 98.49h-6.7a1 1 0 0 1 0-2h6.7a1 1 0 0 1 0 2z" fill="#093f68"/><path d="m222.79 81.06v116.56a3.2 3.2 0 0 1 -3.2 3.2h-135.39a3.2 3.2 0 0 1 -3.2-3.2v-116.56a3.2 3.2 0 0 1 3.2-3.2h135.39a3.2 3.2 0 0 1 3.2 3.2z" fill="#68e1fd"/><path d="m219.59 201.82h-135.39a4.21 4.21 0 0 1 -4.2-4.2v-116.56a4.21 4.21 0 0 1 4.2-4.2h135.39a4.21 4.21 0 0 1 4.2 4.2v116.56a4.21 4.21 0 0 1 -4.2 4.2zm-135.39-122.96a2.21 2.21 0 0 0 -2.2 2.2v116.56a2.21 2.21 0 0 0 2.2 2.2h135.39a2.21 2.21 0 0 0 2.2-2.2v-116.56a2.21 2.21 0 0 0 -2.2-2.2z" fill="#093f68"/><path d="m222.79 81.06v116.56a3.2 3.2 0 0 1 -3.2 3.2h-90.06v-123h90.06a3.2 3.2 0 0 1 3.2 3.24z" fill="#fff"/><path d="m219.59 201.82h-90.06a1 1 0 0 1 -1-1v-123a1 1 0 0 1 1-1h90.06a4.21 4.21 0 0 1 4.2 4.2v116.6a4.21 4.21 0 0 1 -4.2 4.2zm-89.06-2h89.06a2.21 2.21 0 0 0 2.2-2.2v-116.56a2.21 2.21 0 0 0 -2.2-2.2h-89.06z" fill="#093f68"/><path d="m222.79 81.06v13.13h-141.79v-13.13a3.2 3.2 0 0 1 3.2-3.2h135.39a3.2 3.2 0 0 1 3.2 3.2z" fill="#fff"/><path d="m222.79 95.19h-141.79a1 1 0 0 1 -1-1v-13.13a4.21 4.21 0 0 1 4.2-4.2h135.39a4.21 4.21 0 0 1 4.2 4.2v13.13a1 1 0 0 1 -1 1zm-140.79-2h139.79v-12.13a2.21 2.21 0 0 0 -2.2-2.2h-135.39a2.21 2.21 0 0 0 -2.2 2.2z" fill="#093f68"/><circle cx="91.94" cy="85.58" fill="#f56132" r="2.95"/><path d="m91.94 89.53a4 4 0 1 1 4-4 4 4 0 0 1 -4 4zm0-5.91a2 2 0 1 0 2 2 2 2 0 0 0 -2-2z" fill="#093f68"/><circle cx="103.88" cy="85.58" fill="#ffbc0e" r="2.95"/><path d="m103.88 89.53a4 4 0 1 1 4-4 4 4 0 0 1 -4 4zm0-5.91a2 2 0 1 0 2 2 2 2 0 0 0 -2-2z" fill="#093f68"/><circle cx="115.81" cy="85.58" fill="#70cc40" r="2.95"/><path d="m115.81 89.53a4 4 0 1 1 4-4 4 4 0 0 1 -4 4zm0-5.91a2 2 0 1 0 2 2 2 2 0 0 0 -2-2z" fill="#093f68"/><path d="m153.54 105.43h-14.69a1 1 0 0 1 0-2h14.69a1 1 0 1 1 0 2z" fill="#093f68"/><path d="m173.83 116.28h-30.16a1 1 0 0 1 0-2h30.16a1 1 0 0 1 0 2z" fill="#ffbc0e"/><path d="m166.34 127.13h-22.67a1 1 0 1 1 0-2h22.67a1 1 0 1 1 0 2z" fill="#ffbc0e"/><path d="m154.38 138h-13a1 1 0 0 1 0-2h13a1 1 0 0 1 0 2z" fill="#093f68"/><path d="m159.56 148.83h-14.7a1 1 0 0 1 0-2h14.7a1 1 0 0 1 0 2z" fill="#f56132"/><path d="m167 159.68h-22.64a1 1 0 0 1 0-2h22.64a1 1 0 1 1 0 2z" fill="#093f68"/><path d="m149.87 170.53h-11a1 1 0 0 1 0-2h11a1 1 0 0 1 0 2z" fill="#093f68"/><path d="m167 181.38h-24.1a1 1 0 1 1 0-2h24.1a1 1 0 0 1 0 2z" fill="#70cc40"/><path d="m190.17 181.38h-15.85a1 1 0 0 1 0-2h15.85a1 1 0 0 1 0 2z" fill="#ffbc0e"/><path d="m185 127.13h-11.2a1 1 0 0 1 0-2h11.2a1 1 0 0 1 0 2z" fill="#093f68"/><path d="m201 116.28h-21.57a1 1 0 0 1 0-2h21.57a1 1 0 0 1 0 2z" fill="#68e1fd"/><path d="m197.41 127.13h-6.3a1 1 0 0 1 0-2h6.3a1 1 0 0 1 0 2z" fill="#f56132"/><path d="m170.19 148.83h-6.29a1 1 0 0 1 0-2h6.29a1 1 0 0 1 0 2z" fill="#f56132"/><path d="m201 148.83h-25.63a1 1 0 0 1 0-2h25.63a1 1 0 0 1 0 2z" fill="#ffbc0e"/><path d="m179.43 159.68h-5.6a1 1 0 1 1 0-2h5.6a1 1 0 0 1 0 2z" fill="#68e1fd"/><path d="m201 181.38h-3.57a1 1 0 1 1 0-2h3.57a1 1 0 1 1 0 2z" fill="#093f68"/><path d="m124.52 136.49a2.21 2.21 0 0 0 -1.72-2.07c-.83-.18-1.67-.31-2.51-.44a.55.55 0 0 1 -.49-.42c-.25-.66-.53-1.32-.82-2a.44.44 0 0 1 0-.51c.51-.69 1-1.38 1.49-2.1a2.2 2.2 0 0 0 -.2-2.69c-.76-.84-1.59-1.63-2.39-2.44a2.35 2.35 0 0 0 -3.21-.29c-.63.43-1.25.88-1.87 1.33a.42.42 0 0 1 -.5 0c-.71-.31-1.43-.61-2.15-.88a.44.44 0 0 1 -.33-.39c-.12-.77-.24-1.54-.38-2.3a2.32 2.32 0 0 0 -2.22-2q-1.77 0-3.54 0a2.24 2.24 0 0 0 -2.15 1.75c-.19.86-.32 1.73-.46 2.6a.46.46 0 0 1 -.33.39c-.69.28-1.37.57-2 .87a.39.39 0 0 1 -.48 0c-.68-.5-1.36-1-2.07-1.48a2.22 2.22 0 0 0 -2.72.18c-.9.82-1.77 1.68-2.6 2.58a2.26 2.26 0 0 0 -.15 3c.46.66.94 1.31 1.39 2a.43.43 0 0 1 0 .35c-.28.74-.58 1.48-.89 2.22a.49.49 0 0 1 -.22.25c-.77.14-1.53.26-2.3.38a2.34 2.34 0 0 0 -2.06 2.16v3.7a2.23 2.23 0 0 0 1.71 2.06c.87.2 1.77.33 2.65.48a.41.41 0 0 1 .37.3c.28.71.58 1.4.89 2.09a.41.41 0 0 1 0 .45c-.47.63-.94 1.27-1.38 1.92a2.31 2.31 0 0 0 .27 3.11c.73.75 1.48 1.5 2.24 2.24a2.32 2.32 0 0 0 3.19.24c.64-.45 1.28-.9 1.92-1.37a.36.36 0 0 1 .42 0c.65.28 1.31.56 2 .81a.51.51 0 0 1 .37.46c.11.76.24 1.52.37 2.27a2.3 2.3 0 0 0 2.12 2h3.73a2.22 2.22 0 0 0 2.06-1.74c.19-.83.31-1.69.45-2.53a.49.49 0 0 1 .36-.44c.69-.27 1.38-.56 2.06-.86a.39.39 0 0 1 .45.05c.63.46 1.28.91 1.92 1.37a2.38 2.38 0 0 0 1.54.47 2 2 0 0 0 1.38-.56c.82-.77 1.6-1.56 2.39-2.35a2.35 2.35 0 0 0 .29-3.26c-.43-.63-.88-1.26-1.33-1.88a.39.39 0 0 1 0-.44c.31-.7.6-1.39.87-2.1a.44.44 0 0 1 .4-.31l2.3-.38a2.32 2.32 0 0 0 2-2.2c-.1-1.22-.1-2.43-.13-3.65zm-19 10a8.19 8.19 0 1 1 8.2-8.17 8.19 8.19 0 0 1 -8.17 8.2z" fill="#fff" stroke="#093f68" stroke-linecap="round" stroke-linejoin="round" stroke-width="2"/><rect fill="#fff" height="6.05" rx="2.06" width="36.28" x="87.58" y="169.53"/><path d="m121.8 176.58h-32.15a3.08 3.08 0 0 1 -3.07-3.07v-1.92a3.07 3.07 0 0 1 3.07-3.06h32.15a3.06 3.06 0 0 1 3.06 3.06v1.92a3.07 3.07 0 0 1 -3.06 3.07zm-32.15-6.05a1.06 1.06 0 0 0 -1.07 1.06v1.92a1.07 1.07 0 0 0 1.07 1.07h32.15a1.07 1.07 0 0 0 1.06-1.07v-1.92a1.06 1.06 0 0 0 -1.06-1.06z" fill="#093f68"/><path d="m89.18 169.53h20.22a0 0 0 0 1 0 0v6a0 0 0 0 1 0 0h-20.22a1.6 1.6 0 0 1 -1.6-1.6v-2.85a1.6 1.6 0 0 1 1.6-1.55z" fill="#ffbc0e"/><path d="m109.4 176.58h-20.22a2.61 2.61 0 0 1 -2.6-2.6v-2.85a2.6 2.6 0 0 1 2.6-2.6h20.22a1 1 0 0 1 1 1v6.05a1 1 0 0 1 -1 1zm-20.22-6.05a.6.6 0 0 0 -.6.6v2.87a.6.6 0 0 0 .6.6h19.22v-4.05z" fill="#093f68"/><path d="m145.17 223.14a1 1 0 0 1 -.82-.43 1 1 0 0 1 .25-1.4l6.36-4.39-6.27-3.48a1 1 0 1 1 1-1.75l7.68 4.26a1 1 0 0 1 .51.82 1 1 0 0 1 -.43.87l-7.71 5.36a1 1 0 0 1 -.57.14z" fill="#093f68"/><path d="m238 223.14a1 1 0 0 1 -.57-1.83l6.35-4.39-6.27-3.48a1 1 0 1 1 1-1.75l7.68 4.26a1 1 0 0 1 .51.82 1 1 0 0 1 -.43.87l-7.69 5.36a1 1 0 0 1 -.58.14z" fill="#093f68"/></svg>